<mxfile host="app.diagrams.net" modified="2023-10-10T10:18:57.009Z" agent="Mozilla/5.0 (Windows NT 10.0; Win64; x64) AppleWebKit/537.36 (KHTML, like Gecko) Chrome/117.0.0.0 Safari/537.36" etag="QwE4D-9LdbPWbi7O3E13" version="22.0.4" type="device">
  <diagram name="Página-1" id="niUABIqOOW4Xyc3VDg0K">
    <mxGraphModel dx="1707" dy="446" grid="1" gridSize="10" guides="1" tooltips="1" connect="1" arrows="1" fold="1" page="1" pageScale="1" pageWidth="827" pageHeight="1169" math="0" shadow="0">
      <root>
        <mxCell id="0" />
        <mxCell id="1" parent="0" />
        <mxCell id="XPH8SE2JhV1s-AWfYaeT-1" value="Clientes" style="whiteSpace=wrap;html=1;align=center;rounded=0;sketch=1;curveFitting=1;jiggle=2;labelBackgroundColor=none;fillColor=#FAE5C7;strokeColor=#0F8B8D;fontColor=#143642;" parent="1" vertex="1">
          <mxGeometry x="-440" y="270" width="100" height="40" as="geometry" />
        </mxCell>
        <mxCell id="XPH8SE2JhV1s-AWfYaeT-2" value="NúmCliente" style="ellipse;whiteSpace=wrap;html=1;align=center;fontStyle=4;rounded=0;sketch=1;curveFitting=1;jiggle=2;labelBackgroundColor=none;fillColor=#FAE5C7;strokeColor=#0F8B8D;fontColor=#143642;" parent="1" vertex="1">
          <mxGeometry x="-440" y="210" width="100" height="40" as="geometry" />
        </mxCell>
        <mxCell id="XPH8SE2JhV1s-AWfYaeT-3" value="Dirección" style="ellipse;whiteSpace=wrap;html=1;align=center;rounded=0;sketch=1;curveFitting=1;jiggle=2;labelBackgroundColor=none;fillColor=#FAE5C7;strokeColor=#0F8B8D;fontColor=#143642;" parent="1" vertex="1">
          <mxGeometry x="-547.5" y="320" width="100" height="40" as="geometry" />
        </mxCell>
        <mxCell id="XPH8SE2JhV1s-AWfYaeT-4" value="Saldo" style="ellipse;whiteSpace=wrap;html=1;align=center;rounded=0;sketch=1;curveFitting=1;jiggle=2;labelBackgroundColor=none;fillColor=#FAE5C7;strokeColor=#0F8B8D;fontColor=#143642;" parent="1" vertex="1">
          <mxGeometry x="-547.5" y="210" width="100" height="40" as="geometry" />
        </mxCell>
        <mxCell id="XPH8SE2JhV1s-AWfYaeT-5" value="LimCred" style="ellipse;whiteSpace=wrap;html=1;align=center;rounded=0;sketch=1;curveFitting=1;jiggle=2;labelBackgroundColor=none;fillColor=#FAE5C7;strokeColor=#0F8B8D;fontColor=#143642;" parent="1" vertex="1">
          <mxGeometry x="-320" y="210" width="100" height="40" as="geometry" />
        </mxCell>
        <mxCell id="XPH8SE2JhV1s-AWfYaeT-6" value="Descuento" style="ellipse;whiteSpace=wrap;html=1;align=center;rounded=0;sketch=1;curveFitting=1;jiggle=2;labelBackgroundColor=none;fillColor=#FAE5C7;strokeColor=#0F8B8D;fontColor=#143642;" parent="1" vertex="1">
          <mxGeometry x="-565" y="270" width="100" height="40" as="geometry" />
        </mxCell>
        <mxCell id="XPH8SE2JhV1s-AWfYaeT-11" value="Artículos" style="whiteSpace=wrap;html=1;align=center;rounded=0;sketch=1;curveFitting=1;jiggle=2;labelBackgroundColor=none;fillColor=#FAE5C7;strokeColor=#0F8B8D;fontColor=#143642;" parent="1" vertex="1">
          <mxGeometry x="50" y="270" width="100" height="40" as="geometry" />
        </mxCell>
        <mxCell id="XPH8SE2JhV1s-AWfYaeT-14" value="NúmArt" style="ellipse;whiteSpace=wrap;html=1;align=center;fontStyle=4;rounded=0;sketch=1;curveFitting=1;jiggle=2;labelBackgroundColor=none;fillColor=#FAE5C7;strokeColor=#0F8B8D;fontColor=#143642;" parent="1" vertex="1">
          <mxGeometry x="-70" y="220" width="100" height="40" as="geometry" />
        </mxCell>
        <mxCell id="XPH8SE2JhV1s-AWfYaeT-15" value="Descripción" style="ellipse;whiteSpace=wrap;html=1;align=center;rounded=0;sketch=1;curveFitting=1;jiggle=2;labelBackgroundColor=none;fillColor=#FAE5C7;strokeColor=#0F8B8D;fontColor=#143642;" parent="1" vertex="1">
          <mxGeometry x="50" y="200" width="100" height="40" as="geometry" />
        </mxCell>
        <mxCell id="XPH8SE2JhV1s-AWfYaeT-17" value="UnidadesFab" style="ellipse;whiteSpace=wrap;html=1;align=center;rounded=0;sketch=1;curveFitting=1;jiggle=2;labelBackgroundColor=none;fillColor=#FAE5C7;strokeColor=#0F8B8D;fontColor=#143642;" parent="1" vertex="1">
          <mxGeometry x="160" y="220" width="100" height="40" as="geometry" />
        </mxCell>
        <mxCell id="XPH8SE2JhV1s-AWfYaeT-18" value="Pedido" style="whiteSpace=wrap;html=1;align=center;rounded=0;sketch=1;curveFitting=1;jiggle=2;labelBackgroundColor=none;fillColor=#FAE5C7;strokeColor=#0F8B8D;fontColor=#143642;" parent="1" vertex="1">
          <mxGeometry x="-420" y="480" width="100" height="40" as="geometry" />
        </mxCell>
        <mxCell id="XPH8SE2JhV1s-AWfYaeT-21" value="CodPedido" style="ellipse;whiteSpace=wrap;html=1;align=center;rounded=0;sketch=1;curveFitting=1;jiggle=2;labelBackgroundColor=none;fillColor=#FAE5C7;strokeColor=#0F8B8D;fontColor=#143642;" parent="1" vertex="1">
          <mxGeometry x="-547.5" y="450" width="100" height="40" as="geometry" />
        </mxCell>
        <mxCell id="XPH8SE2JhV1s-AWfYaeT-30" value="NúmFab" style="ellipse;whiteSpace=wrap;html=1;align=center;fontStyle=4;rounded=0;sketch=1;curveFitting=1;jiggle=2;labelBackgroundColor=none;fillColor=#FAE5C7;strokeColor=#0F8B8D;fontColor=#143642;" parent="1" vertex="1">
          <mxGeometry x="-45" y="540" width="100" height="40" as="geometry" />
        </mxCell>
        <mxCell id="XPH8SE2JhV1s-AWfYaeT-33" value="Teléfono" style="ellipse;whiteSpace=wrap;html=1;align=center;rounded=0;sketch=1;curveFitting=1;jiggle=2;labelBackgroundColor=none;fillColor=#FAE5C7;strokeColor=#0F8B8D;fontColor=#143642;" parent="1" vertex="1">
          <mxGeometry x="130" y="540" width="100" height="40" as="geometry" />
        </mxCell>
        <mxCell id="XPH8SE2JhV1s-AWfYaeT-34" value="" style="endArrow=none;html=1;rounded=0;entryX=0;entryY=1;entryDx=0;entryDy=0;exitX=1;exitY=0;exitDx=0;exitDy=0;sketch=1;curveFitting=1;jiggle=2;labelBackgroundColor=none;strokeColor=#A8201A;fontColor=default;" parent="1" source="XPH8SE2JhV1s-AWfYaeT-1" target="XPH8SE2JhV1s-AWfYaeT-5" edge="1">
          <mxGeometry relative="1" as="geometry">
            <mxPoint x="-190" y="450" as="sourcePoint" />
            <mxPoint x="-30" y="450" as="targetPoint" />
          </mxGeometry>
        </mxCell>
        <mxCell id="XPH8SE2JhV1s-AWfYaeT-35" value="" style="endArrow=none;html=1;rounded=0;exitX=0.72;exitY=0.978;exitDx=0;exitDy=0;exitPerimeter=0;entryX=0;entryY=0;entryDx=0;entryDy=0;sketch=1;curveFitting=1;jiggle=2;labelBackgroundColor=none;strokeColor=#A8201A;fontColor=default;" parent="1" source="XPH8SE2JhV1s-AWfYaeT-4" target="XPH8SE2JhV1s-AWfYaeT-1" edge="1">
          <mxGeometry relative="1" as="geometry">
            <mxPoint x="-190" y="450" as="sourcePoint" />
            <mxPoint x="-30" y="450" as="targetPoint" />
          </mxGeometry>
        </mxCell>
        <mxCell id="XPH8SE2JhV1s-AWfYaeT-36" value="" style="endArrow=none;html=1;rounded=0;exitX=1;exitY=0.5;exitDx=0;exitDy=0;sketch=1;curveFitting=1;jiggle=2;labelBackgroundColor=none;strokeColor=#A8201A;fontColor=default;" parent="1" source="XPH8SE2JhV1s-AWfYaeT-6" edge="1">
          <mxGeometry relative="1" as="geometry">
            <mxPoint x="-190" y="450" as="sourcePoint" />
            <mxPoint x="-440" y="290" as="targetPoint" />
          </mxGeometry>
        </mxCell>
        <mxCell id="XPH8SE2JhV1s-AWfYaeT-39" value="" style="endArrow=none;html=1;rounded=0;exitX=1;exitY=0;exitDx=0;exitDy=0;entryX=0;entryY=1;entryDx=0;entryDy=0;sketch=1;curveFitting=1;jiggle=2;labelBackgroundColor=none;strokeColor=#A8201A;fontColor=default;" parent="1" source="XPH8SE2JhV1s-AWfYaeT-3" target="XPH8SE2JhV1s-AWfYaeT-1" edge="1">
          <mxGeometry relative="1" as="geometry">
            <mxPoint x="-190" y="350" as="sourcePoint" />
            <mxPoint x="-380" y="310" as="targetPoint" />
          </mxGeometry>
        </mxCell>
        <mxCell id="XPH8SE2JhV1s-AWfYaeT-41" value="Provincia" style="ellipse;whiteSpace=wrap;html=1;align=center;rounded=0;sketch=1;curveFitting=1;jiggle=2;labelBackgroundColor=none;fillColor=#FAE5C7;strokeColor=#0F8B8D;fontColor=#143642;" parent="1" vertex="1">
          <mxGeometry x="-440" y="350" width="70" height="30" as="geometry" />
        </mxCell>
        <mxCell id="XPH8SE2JhV1s-AWfYaeT-42" value="Ciudad" style="ellipse;whiteSpace=wrap;html=1;align=center;rounded=0;sketch=1;curveFitting=1;jiggle=2;labelBackgroundColor=none;fillColor=#FAE5C7;strokeColor=#0F8B8D;fontColor=#143642;" parent="1" vertex="1">
          <mxGeometry x="-510" y="380" width="70" height="30" as="geometry" />
        </mxCell>
        <mxCell id="XPH8SE2JhV1s-AWfYaeT-43" value="Calle" style="ellipse;whiteSpace=wrap;html=1;align=center;rounded=0;sketch=1;curveFitting=1;jiggle=2;labelBackgroundColor=none;fillColor=#FAE5C7;strokeColor=#0F8B8D;fontColor=#143642;" parent="1" vertex="1">
          <mxGeometry x="-590" y="380" width="70" height="30" as="geometry" />
        </mxCell>
        <mxCell id="XPH8SE2JhV1s-AWfYaeT-44" value="Núm" style="ellipse;whiteSpace=wrap;html=1;align=center;rounded=0;sketch=1;curveFitting=1;jiggle=2;labelBackgroundColor=none;fillColor=#FAE5C7;strokeColor=#0F8B8D;fontColor=#143642;" parent="1" vertex="1">
          <mxGeometry x="-630" y="340" width="70" height="30" as="geometry" />
        </mxCell>
        <mxCell id="XPH8SE2JhV1s-AWfYaeT-46" value="" style="endArrow=none;html=1;rounded=0;exitX=0.971;exitY=0.233;exitDx=0;exitDy=0;exitPerimeter=0;entryX=0;entryY=0.5;entryDx=0;entryDy=0;sketch=1;curveFitting=1;jiggle=2;labelBackgroundColor=none;strokeColor=#A8201A;fontColor=default;" parent="1" source="XPH8SE2JhV1s-AWfYaeT-44" target="XPH8SE2JhV1s-AWfYaeT-3" edge="1">
          <mxGeometry relative="1" as="geometry">
            <mxPoint x="-360" y="340" as="sourcePoint" />
            <mxPoint x="-200" y="340" as="targetPoint" />
          </mxGeometry>
        </mxCell>
        <mxCell id="XPH8SE2JhV1s-AWfYaeT-47" value="" style="endArrow=none;html=1;rounded=0;exitX=0.5;exitY=0;exitDx=0;exitDy=0;entryX=0;entryY=1;entryDx=0;entryDy=0;sketch=1;curveFitting=1;jiggle=2;labelBackgroundColor=none;strokeColor=#A8201A;fontColor=default;" parent="1" source="XPH8SE2JhV1s-AWfYaeT-43" target="XPH8SE2JhV1s-AWfYaeT-3" edge="1">
          <mxGeometry relative="1" as="geometry">
            <mxPoint x="-360" y="340" as="sourcePoint" />
            <mxPoint x="-200" y="340" as="targetPoint" />
          </mxGeometry>
        </mxCell>
        <mxCell id="XPH8SE2JhV1s-AWfYaeT-48" value="" style="endArrow=none;html=1;rounded=0;exitX=0.5;exitY=0;exitDx=0;exitDy=0;entryX=0.725;entryY=1.025;entryDx=0;entryDy=0;entryPerimeter=0;sketch=1;curveFitting=1;jiggle=2;labelBackgroundColor=none;strokeColor=#A8201A;fontColor=default;" parent="1" source="XPH8SE2JhV1s-AWfYaeT-42" target="XPH8SE2JhV1s-AWfYaeT-3" edge="1">
          <mxGeometry relative="1" as="geometry">
            <mxPoint x="-360" y="340" as="sourcePoint" />
            <mxPoint x="-200" y="340" as="targetPoint" />
          </mxGeometry>
        </mxCell>
        <mxCell id="XPH8SE2JhV1s-AWfYaeT-49" value="" style="endArrow=none;html=1;rounded=0;entryX=0;entryY=0;entryDx=0;entryDy=0;sketch=1;curveFitting=1;jiggle=2;labelBackgroundColor=none;strokeColor=#A8201A;fontColor=default;" parent="1" source="XPH8SE2JhV1s-AWfYaeT-3" target="XPH8SE2JhV1s-AWfYaeT-41" edge="1">
          <mxGeometry relative="1" as="geometry">
            <mxPoint x="-360" y="340" as="sourcePoint" />
            <mxPoint x="-200" y="340" as="targetPoint" />
          </mxGeometry>
        </mxCell>
        <mxCell id="XPH8SE2JhV1s-AWfYaeT-50" value="Hace" style="shape=rhombus;perimeter=rhombusPerimeter;whiteSpace=wrap;html=1;align=center;rounded=0;sketch=1;curveFitting=1;jiggle=2;labelBackgroundColor=none;fillColor=#FAE5C7;strokeColor=#0F8B8D;fontColor=#143642;" parent="1" vertex="1">
          <mxGeometry x="-380" y="380" width="110" height="50" as="geometry" />
        </mxCell>
        <mxCell id="XPH8SE2JhV1s-AWfYaeT-51" value="" style="endArrow=none;html=1;rounded=0;exitX=0.5;exitY=1;exitDx=0;exitDy=0;entryX=0.5;entryY=0;entryDx=0;entryDy=0;sketch=1;curveFitting=1;jiggle=2;labelBackgroundColor=none;strokeColor=#A8201A;fontColor=default;" parent="1" source="XPH8SE2JhV1s-AWfYaeT-1" target="XPH8SE2JhV1s-AWfYaeT-50" edge="1">
          <mxGeometry relative="1" as="geometry">
            <mxPoint x="-240" y="370" as="sourcePoint" />
            <mxPoint x="-80" y="370" as="targetPoint" />
          </mxGeometry>
        </mxCell>
        <mxCell id="XPH8SE2JhV1s-AWfYaeT-52" value="" style="endArrow=none;html=1;rounded=0;exitX=0.5;exitY=1;exitDx=0;exitDy=0;entryX=0.5;entryY=0;entryDx=0;entryDy=0;sketch=1;curveFitting=1;jiggle=2;labelBackgroundColor=none;strokeColor=#A8201A;fontColor=default;" parent="1" source="XPH8SE2JhV1s-AWfYaeT-50" target="XPH8SE2JhV1s-AWfYaeT-18" edge="1">
          <mxGeometry relative="1" as="geometry">
            <mxPoint x="-240" y="370" as="sourcePoint" />
            <mxPoint x="-80" y="370" as="targetPoint" />
          </mxGeometry>
        </mxCell>
        <mxCell id="XPH8SE2JhV1s-AWfYaeT-53" value="" style="endArrow=none;html=1;rounded=0;exitX=1;exitY=0.5;exitDx=0;exitDy=0;entryX=0.07;entryY=0.05;entryDx=0;entryDy=0;sketch=1;curveFitting=1;jiggle=2;labelBackgroundColor=none;strokeColor=#A8201A;fontColor=default;entryPerimeter=0;" parent="1" source="XPH8SE2JhV1s-AWfYaeT-21" target="XPH8SE2JhV1s-AWfYaeT-18" edge="1">
          <mxGeometry relative="1" as="geometry">
            <mxPoint x="-240" y="370" as="sourcePoint" />
            <mxPoint x="-80" y="370" as="targetPoint" />
          </mxGeometry>
        </mxCell>
        <mxCell id="XPH8SE2JhV1s-AWfYaeT-54" value="Incluye" style="shape=rhombus;perimeter=rhombusPerimeter;whiteSpace=wrap;html=1;align=center;rounded=0;sketch=1;curveFitting=1;jiggle=2;labelBackgroundColor=none;fillColor=#FAE5C7;strokeColor=#0F8B8D;fontColor=#143642;" parent="1" vertex="1">
          <mxGeometry x="-180" y="370" width="100" height="50" as="geometry" />
        </mxCell>
        <mxCell id="XPH8SE2JhV1s-AWfYaeT-55" value="" style="endArrow=none;html=1;rounded=0;exitX=1;exitY=0.5;exitDx=0;exitDy=0;sketch=1;curveFitting=1;jiggle=2;labelBackgroundColor=none;strokeColor=#A8201A;fontColor=default;" parent="1" source="XPH8SE2JhV1s-AWfYaeT-18" target="XPH8SE2JhV1s-AWfYaeT-54" edge="1">
          <mxGeometry relative="1" as="geometry">
            <mxPoint x="-240" y="370" as="sourcePoint" />
            <mxPoint x="-80" y="370" as="targetPoint" />
          </mxGeometry>
        </mxCell>
        <mxCell id="XPH8SE2JhV1s-AWfYaeT-56" value="" style="endArrow=none;html=1;rounded=0;entryX=0;entryY=1;entryDx=0;entryDy=0;exitX=1;exitY=0;exitDx=0;exitDy=0;sketch=1;curveFitting=1;jiggle=2;labelBackgroundColor=none;strokeColor=#A8201A;fontColor=default;" parent="1" source="XPH8SE2JhV1s-AWfYaeT-54" target="XPH8SE2JhV1s-AWfYaeT-11" edge="1">
          <mxGeometry relative="1" as="geometry">
            <mxPoint x="-240" y="370" as="sourcePoint" />
            <mxPoint x="-80" y="370" as="targetPoint" />
          </mxGeometry>
        </mxCell>
        <mxCell id="XPH8SE2JhV1s-AWfYaeT-57" value="Cantidad" style="ellipse;whiteSpace=wrap;html=1;align=center;rounded=0;sketch=1;curveFitting=1;jiggle=2;labelBackgroundColor=none;fillColor=#FAE5C7;strokeColor=#0F8B8D;fontColor=#143642;" parent="1" vertex="1">
          <mxGeometry x="-170" y="310" width="80" height="30" as="geometry" />
        </mxCell>
        <mxCell id="XPH8SE2JhV1s-AWfYaeT-58" value="" style="endArrow=none;html=1;rounded=0;exitX=0.5;exitY=1;exitDx=0;exitDy=0;entryX=0.5;entryY=0;entryDx=0;entryDy=0;sketch=1;curveFitting=1;jiggle=2;labelBackgroundColor=none;strokeColor=#A8201A;fontColor=default;" parent="1" source="XPH8SE2JhV1s-AWfYaeT-57" target="XPH8SE2JhV1s-AWfYaeT-54" edge="1">
          <mxGeometry relative="1" as="geometry">
            <mxPoint x="-240" y="370" as="sourcePoint" />
            <mxPoint x="-80" y="370" as="targetPoint" />
          </mxGeometry>
        </mxCell>
        <mxCell id="XPH8SE2JhV1s-AWfYaeT-59" value="Fábrica" style="whiteSpace=wrap;html=1;align=center;rounded=0;sketch=1;curveFitting=1;jiggle=2;labelBackgroundColor=none;fillColor=#FAE5C7;strokeColor=#0F8B8D;fontColor=#143642;" parent="1" vertex="1">
          <mxGeometry x="50" y="470" width="100" height="40" as="geometry" />
        </mxCell>
        <mxCell id="XPH8SE2JhV1s-AWfYaeT-60" value="Fabrica" style="shape=rhombus;perimeter=rhombusPerimeter;whiteSpace=wrap;html=1;align=center;rounded=0;sketch=1;curveFitting=1;jiggle=2;labelBackgroundColor=none;fillColor=#FAE5C7;strokeColor=#0F8B8D;fontColor=#143642;" parent="1" vertex="1">
          <mxGeometry x="55" y="365" width="90" height="45" as="geometry" />
        </mxCell>
        <mxCell id="XPH8SE2JhV1s-AWfYaeT-61" value="" style="endArrow=none;html=1;rounded=0;entryX=0.5;entryY=1;entryDx=0;entryDy=0;exitX=0.5;exitY=0;exitDx=0;exitDy=0;sketch=1;curveFitting=1;jiggle=2;labelBackgroundColor=none;strokeColor=#A8201A;fontColor=default;" parent="1" source="XPH8SE2JhV1s-AWfYaeT-60" target="XPH8SE2JhV1s-AWfYaeT-11" edge="1">
          <mxGeometry relative="1" as="geometry">
            <mxPoint x="-240" y="370" as="sourcePoint" />
            <mxPoint x="-80" y="370" as="targetPoint" />
          </mxGeometry>
        </mxCell>
        <mxCell id="XPH8SE2JhV1s-AWfYaeT-62" value="" style="endArrow=none;html=1;rounded=0;entryX=0.5;entryY=1;entryDx=0;entryDy=0;exitX=0.5;exitY=0;exitDx=0;exitDy=0;sketch=1;curveFitting=1;jiggle=2;labelBackgroundColor=none;strokeColor=#A8201A;fontColor=default;" parent="1" source="XPH8SE2JhV1s-AWfYaeT-59" target="XPH8SE2JhV1s-AWfYaeT-60" edge="1">
          <mxGeometry relative="1" as="geometry">
            <mxPoint x="110" y="375" as="sourcePoint" />
            <mxPoint x="110" y="320" as="targetPoint" />
          </mxGeometry>
        </mxCell>
        <mxCell id="XPH8SE2JhV1s-AWfYaeT-63" value="" style="endArrow=none;html=1;rounded=0;exitX=0.5;exitY=0;exitDx=0;exitDy=0;entryX=0;entryY=1;entryDx=0;entryDy=0;sketch=1;curveFitting=1;jiggle=2;labelBackgroundColor=none;strokeColor=#A8201A;fontColor=default;" parent="1" source="XPH8SE2JhV1s-AWfYaeT-30" target="XPH8SE2JhV1s-AWfYaeT-59" edge="1">
          <mxGeometry relative="1" as="geometry">
            <mxPoint x="-240" y="370" as="sourcePoint" />
            <mxPoint x="-80" y="370" as="targetPoint" />
          </mxGeometry>
        </mxCell>
        <mxCell id="XPH8SE2JhV1s-AWfYaeT-64" value="" style="endArrow=none;html=1;rounded=0;exitX=0.5;exitY=0;exitDx=0;exitDy=0;entryX=1;entryY=1;entryDx=0;entryDy=0;sketch=1;curveFitting=1;jiggle=2;labelBackgroundColor=none;strokeColor=#A8201A;fontColor=default;" parent="1" source="XPH8SE2JhV1s-AWfYaeT-33" target="XPH8SE2JhV1s-AWfYaeT-59" edge="1">
          <mxGeometry relative="1" as="geometry">
            <mxPoint x="31" y="546" as="sourcePoint" />
            <mxPoint x="150" y="530" as="targetPoint" />
          </mxGeometry>
        </mxCell>
        <mxCell id="XPH8SE2JhV1s-AWfYaeT-65" value="Existencias" style="ellipse;whiteSpace=wrap;html=1;align=center;rounded=0;sketch=1;curveFitting=1;jiggle=2;labelBackgroundColor=none;fillColor=#FAE5C7;strokeColor=#0F8B8D;fontColor=#143642;" parent="1" vertex="1">
          <mxGeometry x="190" y="370" width="90" height="35" as="geometry" />
        </mxCell>
        <mxCell id="XPH8SE2JhV1s-AWfYaeT-66" value="" style="endArrow=none;html=1;rounded=0;entryX=0;entryY=0.5;entryDx=0;entryDy=0;exitX=1;exitY=0.5;exitDx=0;exitDy=0;sketch=1;curveFitting=1;jiggle=2;labelBackgroundColor=none;strokeColor=#A8201A;fontColor=default;" parent="1" source="XPH8SE2JhV1s-AWfYaeT-60" target="XPH8SE2JhV1s-AWfYaeT-65" edge="1">
          <mxGeometry relative="1" as="geometry">
            <mxPoint x="-240" y="370" as="sourcePoint" />
            <mxPoint x="-80" y="370" as="targetPoint" />
          </mxGeometry>
        </mxCell>
        <mxCell id="XPH8SE2JhV1s-AWfYaeT-68" value="(1,n)" style="text;strokeColor=none;align=center;fillColor=none;html=1;verticalAlign=middle;whiteSpace=wrap;rounded=0;sketch=1;curveFitting=1;jiggle=2;labelBackgroundColor=none;fontColor=#143642;" parent="1" vertex="1">
          <mxGeometry x="-355" y="440" width="60" height="30" as="geometry" />
        </mxCell>
        <mxCell id="XPH8SE2JhV1s-AWfYaeT-69" value="(1,1)" style="text;strokeColor=none;align=center;fillColor=none;html=1;verticalAlign=middle;whiteSpace=wrap;rounded=0;sketch=1;curveFitting=1;jiggle=2;labelBackgroundColor=none;fontColor=#143642;" parent="1" vertex="1">
          <mxGeometry x="-360" y="320" width="60" height="30" as="geometry" />
        </mxCell>
        <mxCell id="XPH8SE2JhV1s-AWfYaeT-70" value="(1,n)" style="text;strokeColor=none;align=center;fillColor=none;html=1;verticalAlign=middle;whiteSpace=wrap;rounded=0;sketch=1;curveFitting=1;jiggle=2;labelBackgroundColor=none;fontColor=#143642;" parent="1" vertex="1">
          <mxGeometry x="-60" y="320" width="60" height="30" as="geometry" />
        </mxCell>
        <mxCell id="XPH8SE2JhV1s-AWfYaeT-71" value="(1,1)" style="text;strokeColor=none;align=center;fillColor=none;html=1;verticalAlign=middle;whiteSpace=wrap;rounded=0;sketch=1;curveFitting=1;jiggle=2;labelBackgroundColor=none;fontColor=#143642;" parent="1" vertex="1">
          <mxGeometry x="-260" y="420" width="60" height="30" as="geometry" />
        </mxCell>
        <mxCell id="XPH8SE2JhV1s-AWfYaeT-72" value="(1,n)" style="text;strokeColor=none;align=center;fillColor=none;html=1;verticalAlign=middle;whiteSpace=wrap;rounded=0;sketch=1;curveFitting=1;jiggle=2;labelBackgroundColor=none;fontColor=#143642;" parent="1" vertex="1">
          <mxGeometry x="90" y="325" width="60" height="30" as="geometry" />
        </mxCell>
        <mxCell id="XPH8SE2JhV1s-AWfYaeT-73" value="(1,n)" style="text;strokeColor=none;align=center;fillColor=none;html=1;verticalAlign=middle;whiteSpace=wrap;rounded=0;sketch=1;curveFitting=1;jiggle=2;labelBackgroundColor=none;fontColor=#143642;" parent="1" vertex="1">
          <mxGeometry x="90" y="420" width="60" height="30" as="geometry" />
        </mxCell>
        <mxCell id="XPH8SE2JhV1s-AWfYaeT-74" value="" style="endArrow=none;html=1;rounded=0;entryX=0;entryY=0;entryDx=0;entryDy=0;exitX=0.79;exitY=0.9;exitDx=0;exitDy=0;exitPerimeter=0;sketch=1;curveFitting=1;jiggle=2;labelBackgroundColor=none;strokeColor=#A8201A;fontColor=default;" parent="1" source="XPH8SE2JhV1s-AWfYaeT-14" target="XPH8SE2JhV1s-AWfYaeT-11" edge="1">
          <mxGeometry relative="1" as="geometry">
            <mxPoint x="10" y="280" as="sourcePoint" />
            <mxPoint x="-70" y="370" as="targetPoint" />
          </mxGeometry>
        </mxCell>
        <mxCell id="XPH8SE2JhV1s-AWfYaeT-75" value="" style="endArrow=none;html=1;rounded=0;exitX=0.5;exitY=0;exitDx=0;exitDy=0;entryX=0.5;entryY=1;entryDx=0;entryDy=0;sketch=1;curveFitting=1;jiggle=2;labelBackgroundColor=none;strokeColor=#A8201A;fontColor=default;" parent="1" source="XPH8SE2JhV1s-AWfYaeT-11" target="XPH8SE2JhV1s-AWfYaeT-15" edge="1">
          <mxGeometry relative="1" as="geometry">
            <mxPoint x="30" y="280" as="sourcePoint" />
            <mxPoint x="60" y="280" as="targetPoint" />
          </mxGeometry>
        </mxCell>
        <mxCell id="XPH8SE2JhV1s-AWfYaeT-76" value="" style="endArrow=none;html=1;rounded=0;exitX=1;exitY=0;exitDx=0;exitDy=0;sketch=1;curveFitting=1;jiggle=2;labelBackgroundColor=none;strokeColor=#A8201A;fontColor=default;" parent="1" source="XPH8SE2JhV1s-AWfYaeT-11" target="XPH8SE2JhV1s-AWfYaeT-17" edge="1">
          <mxGeometry relative="1" as="geometry">
            <mxPoint x="110" y="280" as="sourcePoint" />
            <mxPoint x="110" y="250" as="targetPoint" />
          </mxGeometry>
        </mxCell>
        <mxCell id="EfZ7LL1oQ6ggNoRGwgMu-1" value="" style="endArrow=none;html=1;rounded=0;entryX=0.5;entryY=1;entryDx=0;entryDy=0;exitX=0.5;exitY=0;exitDx=0;exitDy=0;sketch=1;curveFitting=1;jiggle=2;labelBackgroundColor=none;strokeColor=#A8201A;fontColor=default;" edge="1" parent="1" source="XPH8SE2JhV1s-AWfYaeT-1" target="XPH8SE2JhV1s-AWfYaeT-2">
          <mxGeometry relative="1" as="geometry">
            <mxPoint x="-330" y="280" as="sourcePoint" />
            <mxPoint x="-295" y="254" as="targetPoint" />
          </mxGeometry>
        </mxCell>
        <mxCell id="EfZ7LL1oQ6ggNoRGwgMu-13" value="Dirección" style="ellipse;whiteSpace=wrap;html=1;align=center;rounded=0;sketch=1;curveFitting=1;jiggle=2;labelBackgroundColor=none;fillColor=#FAE5C7;strokeColor=#0F8B8D;fontColor=#143642;" vertex="1" parent="1">
          <mxGeometry x="-527.5" y="520" width="100" height="40" as="geometry" />
        </mxCell>
        <mxCell id="EfZ7LL1oQ6ggNoRGwgMu-14" value="" style="endArrow=none;html=1;rounded=0;exitX=1;exitY=0;exitDx=0;exitDy=0;entryX=0;entryY=1;entryDx=0;entryDy=0;sketch=1;curveFitting=1;jiggle=2;labelBackgroundColor=none;strokeColor=#A8201A;fontColor=default;" edge="1" parent="1" source="EfZ7LL1oQ6ggNoRGwgMu-13">
          <mxGeometry relative="1" as="geometry">
            <mxPoint x="-170" y="550" as="sourcePoint" />
            <mxPoint x="-420" y="510" as="targetPoint" />
          </mxGeometry>
        </mxCell>
        <mxCell id="EfZ7LL1oQ6ggNoRGwgMu-15" value="Provincia" style="ellipse;whiteSpace=wrap;html=1;align=center;rounded=0;sketch=1;curveFitting=1;jiggle=2;labelBackgroundColor=none;fillColor=#FAE5C7;strokeColor=#0F8B8D;fontColor=#143642;" vertex="1" parent="1">
          <mxGeometry x="-420" y="550" width="70" height="30" as="geometry" />
        </mxCell>
        <mxCell id="EfZ7LL1oQ6ggNoRGwgMu-16" value="Ciudad" style="ellipse;whiteSpace=wrap;html=1;align=center;rounded=0;sketch=1;curveFitting=1;jiggle=2;labelBackgroundColor=none;fillColor=#FAE5C7;strokeColor=#0F8B8D;fontColor=#143642;" vertex="1" parent="1">
          <mxGeometry x="-490" y="580" width="70" height="30" as="geometry" />
        </mxCell>
        <mxCell id="EfZ7LL1oQ6ggNoRGwgMu-17" value="Calle" style="ellipse;whiteSpace=wrap;html=1;align=center;rounded=0;sketch=1;curveFitting=1;jiggle=2;labelBackgroundColor=none;fillColor=#FAE5C7;strokeColor=#0F8B8D;fontColor=#143642;" vertex="1" parent="1">
          <mxGeometry x="-570" y="580" width="70" height="30" as="geometry" />
        </mxCell>
        <mxCell id="EfZ7LL1oQ6ggNoRGwgMu-18" value="Núm" style="ellipse;whiteSpace=wrap;html=1;align=center;rounded=0;sketch=1;curveFitting=1;jiggle=2;labelBackgroundColor=none;fillColor=#FAE5C7;strokeColor=#0F8B8D;fontColor=#143642;" vertex="1" parent="1">
          <mxGeometry x="-610" y="540" width="70" height="30" as="geometry" />
        </mxCell>
        <mxCell id="EfZ7LL1oQ6ggNoRGwgMu-19" value="" style="endArrow=none;html=1;rounded=0;exitX=0.971;exitY=0.233;exitDx=0;exitDy=0;exitPerimeter=0;entryX=0;entryY=0.5;entryDx=0;entryDy=0;sketch=1;curveFitting=1;jiggle=2;labelBackgroundColor=none;strokeColor=#A8201A;fontColor=default;" edge="1" parent="1" source="EfZ7LL1oQ6ggNoRGwgMu-18" target="EfZ7LL1oQ6ggNoRGwgMu-13">
          <mxGeometry relative="1" as="geometry">
            <mxPoint x="-340" y="540" as="sourcePoint" />
            <mxPoint x="-180" y="540" as="targetPoint" />
          </mxGeometry>
        </mxCell>
        <mxCell id="EfZ7LL1oQ6ggNoRGwgMu-20" value="" style="endArrow=none;html=1;rounded=0;exitX=0.5;exitY=0;exitDx=0;exitDy=0;entryX=0;entryY=1;entryDx=0;entryDy=0;sketch=1;curveFitting=1;jiggle=2;labelBackgroundColor=none;strokeColor=#A8201A;fontColor=default;" edge="1" parent="1" source="EfZ7LL1oQ6ggNoRGwgMu-17" target="EfZ7LL1oQ6ggNoRGwgMu-13">
          <mxGeometry relative="1" as="geometry">
            <mxPoint x="-340" y="540" as="sourcePoint" />
            <mxPoint x="-180" y="540" as="targetPoint" />
          </mxGeometry>
        </mxCell>
        <mxCell id="EfZ7LL1oQ6ggNoRGwgMu-21" value="" style="endArrow=none;html=1;rounded=0;exitX=0.5;exitY=0;exitDx=0;exitDy=0;entryX=0.725;entryY=1.025;entryDx=0;entryDy=0;entryPerimeter=0;sketch=1;curveFitting=1;jiggle=2;labelBackgroundColor=none;strokeColor=#A8201A;fontColor=default;" edge="1" parent="1" source="EfZ7LL1oQ6ggNoRGwgMu-16" target="EfZ7LL1oQ6ggNoRGwgMu-13">
          <mxGeometry relative="1" as="geometry">
            <mxPoint x="-340" y="540" as="sourcePoint" />
            <mxPoint x="-180" y="540" as="targetPoint" />
          </mxGeometry>
        </mxCell>
        <mxCell id="EfZ7LL1oQ6ggNoRGwgMu-22" value="" style="endArrow=none;html=1;rounded=0;entryX=0;entryY=0;entryDx=0;entryDy=0;sketch=1;curveFitting=1;jiggle=2;labelBackgroundColor=none;strokeColor=#A8201A;fontColor=default;" edge="1" parent="1" source="EfZ7LL1oQ6ggNoRGwgMu-13" target="EfZ7LL1oQ6ggNoRGwgMu-15">
          <mxGeometry relative="1" as="geometry">
            <mxPoint x="-340" y="540" as="sourcePoint" />
            <mxPoint x="-180" y="540" as="targetPoint" />
          </mxGeometry>
        </mxCell>
        <mxCell id="EfZ7LL1oQ6ggNoRGwgMu-24" value="" style="endArrow=none;html=1;rounded=0;exitX=1;exitY=0.75;exitDx=0;exitDy=0;entryX=-0.01;entryY=0.35;entryDx=0;entryDy=0;sketch=1;curveFitting=1;jiggle=2;labelBackgroundColor=none;strokeColor=#A8201A;fontColor=default;entryPerimeter=0;" edge="1" parent="1" source="XPH8SE2JhV1s-AWfYaeT-18">
          <mxGeometry relative="1" as="geometry">
            <mxPoint x="-465" y="259" as="sourcePoint" />
            <mxPoint x="-301" y="524" as="targetPoint" />
          </mxGeometry>
        </mxCell>
        <mxCell id="EfZ7LL1oQ6ggNoRGwgMu-26" value="" style="endArrow=none;html=1;rounded=0;exitX=0.75;exitY=1;exitDx=0;exitDy=0;entryX=0.5;entryY=0;entryDx=0;entryDy=0;sketch=1;curveFitting=1;jiggle=2;labelBackgroundColor=none;strokeColor=#A8201A;fontColor=default;" edge="1" parent="1" source="XPH8SE2JhV1s-AWfYaeT-18">
          <mxGeometry relative="1" as="geometry">
            <mxPoint x="-437" y="480" as="sourcePoint" />
            <mxPoint x="-320" y="565" as="targetPoint" />
          </mxGeometry>
        </mxCell>
        <mxCell id="EfZ7LL1oQ6ggNoRGwgMu-27" value="Ciudad" style="ellipse;whiteSpace=wrap;html=1;align=center;rounded=0;sketch=1;curveFitting=1;jiggle=2;labelBackgroundColor=none;fillColor=#FAE5C7;strokeColor=#0F8B8D;fontColor=#143642;" vertex="1" parent="1">
          <mxGeometry x="-350" y="620" width="70" height="30" as="geometry" />
        </mxCell>
        <mxCell id="EfZ7LL1oQ6ggNoRGwgMu-28" value="&lt;font face=&quot;Helvetica&quot; style=&quot;font-size: 14px;&quot;&gt;NúmArt&lt;/font&gt;" style="ellipse;whiteSpace=wrap;html=1;align=center;sketch=1;hachureGap=4;jiggle=2;curveFitting=1;strokeColor=#0F8B8D;fontFamily=Architects Daughter;fontSource=https%3A%2F%2Ffonts.googleapis.com%2Fcss%3Ffamily%3DArchitects%2BDaughter;fontSize=20;fontColor=#143642;fillColor=#FAE5C7;" vertex="1" parent="1">
          <mxGeometry x="-360" y="560" width="90" height="30" as="geometry" />
        </mxCell>
        <mxCell id="EfZ7LL1oQ6ggNoRGwgMu-29" value="&lt;font face=&quot;Helvetica&quot; style=&quot;font-size: 14px;&quot;&gt;NúmCliente&lt;/font&gt;" style="ellipse;whiteSpace=wrap;html=1;align=center;sketch=1;hachureGap=4;jiggle=2;curveFitting=1;strokeColor=#0F8B8D;fontFamily=Architects Daughter;fontSource=https%3A%2F%2Ffonts.googleapis.com%2Fcss%3Ffamily%3DArchitects%2BDaughter;fontSize=20;fontColor=#143642;fillColor=#FAE5C7;" vertex="1" parent="1">
          <mxGeometry x="-310" y="520" width="90" height="30" as="geometry" />
        </mxCell>
        <mxCell id="EfZ7LL1oQ6ggNoRGwgMu-30" value="" style="endArrow=none;html=1;rounded=0;exitX=0.5;exitY=0;exitDx=0;exitDy=0;entryX=0.5;entryY=1;entryDx=0;entryDy=0;sketch=1;curveFitting=1;jiggle=2;labelBackgroundColor=none;strokeColor=#A8201A;fontColor=default;" edge="1" parent="1" source="EfZ7LL1oQ6ggNoRGwgMu-27" target="EfZ7LL1oQ6ggNoRGwgMu-28">
          <mxGeometry relative="1" as="geometry">
            <mxPoint x="-445" y="590" as="sourcePoint" />
            <mxPoint x="-445" y="571" as="targetPoint" />
          </mxGeometry>
        </mxCell>
      </root>
    </mxGraphModel>
  </diagram>
</mxfile>
